<?xml version="1.0" encoding="UTF-8" standalone="no"?>
<!DOCTYPE svg PUBLIC "-//W3C//DTD SVG 1.1//EN"
 "http://www.w3.org/Graphics/SVG/1.1/DTD/svg11.dtd">
<!-- Generated by graphviz version 2.38.0 (20140413.2041)
 -->
<!-- Title: G Pages: 1 -->
<svg width="339pt" height="960pt"
 viewBox="0.00 0.00 338.99 960.00" xmlns="http://www.w3.org/2000/svg" xmlns:xlink="http://www.w3.org/1999/xlink">
<g id="graph0" class="graph" transform="scale(1 1) rotate(0) translate(4 956)">
<title>G</title>
<polygon fill="white" stroke="none" points="-4,4 -4,-956 334.993,-956 334.993,4 -4,4"/>
<g id="clust1" class="cluster"><title>cluster_Global</title>
<path fill="none" stroke="gray" d="M153.993,-8C153.993,-8 310.993,-8 310.993,-8 316.993,-8 322.993,-14 322.993,-20 322.993,-20 322.993,-932 322.993,-932 322.993,-938 316.993,-944 310.993,-944 310.993,-944 153.993,-944 153.993,-944 147.993,-944 141.993,-938 141.993,-932 141.993,-932 141.993,-20 141.993,-20 141.993,-14 147.993,-8 153.993,-8"/>
<text text-anchor="middle" x="232.493" y="-931.2" font-family="Times New Roman,serif" font-size="11.00" fill="gray">Global</text>
</g>
<!-- \\Debug -->
<g id="node1" class="node"><title>\\Debug</title>
<polygon fill="none" stroke="black" points="259.493,-916 205.493,-916 205.493,-880 259.493,-880 259.493,-916"/>
<text text-anchor="middle" x="232.493" y="-895.2" font-family="Courier,monospace" font-size="11.00">Debug</text>
</g>
<!-- \\Database -->
<g id="node2" class="node"><title>\\Database</title>
<polygon fill="none" stroke="black" points="267.993,-862 196.993,-862 196.993,-826 267.993,-826 267.993,-862"/>
<text text-anchor="middle" x="232.493" y="-841.2" font-family="Courier,monospace" font-size="11.00">Database</text>
</g>
<!-- \\Plugins -->
<g id="node3" class="node"><title>\\Plugins</title>
<polygon fill="none" stroke="black" points="264.493,-808 200.493,-808 200.493,-772 264.493,-772 264.493,-808"/>
<text text-anchor="middle" x="232.493" y="-787.2" font-family="Courier,monospace" font-size="11.00">Plugins</text>
</g>
<!-- \\SecureFilter -->
<g id="node4" class="node"><title>\\SecureFilter</title>
<polygon fill="none" stroke="black" points="281.493,-754 183.493,-754 183.493,-718 281.493,-718 281.493,-754"/>
<text text-anchor="middle" x="232.493" y="-733.2" font-family="Courier,monospace" font-size="11.00">SecureFilter</text>
</g>
<!-- \\TimeUtil -->
<g id="node5" class="node"><title>\\TimeUtil</title>
<polygon fill="none" stroke="black" points="267.993,-700 196.993,-700 196.993,-664 267.993,-664 267.993,-700"/>
<text text-anchor="middle" x="232.493" y="-679.2" font-family="Courier,monospace" font-size="11.00">TimeUtil</text>
</g>
<!-- \\Blocks -->
<g id="node6" class="node"><title>\\Blocks</title>
<polygon fill="none" stroke="black" points="260.993,-646 203.993,-646 203.993,-610 260.993,-610 260.993,-646"/>
<text text-anchor="middle" x="232.493" y="-625.2" font-family="Courier,monospace" font-size="11.00">Blocks</text>
</g>
<!-- \\ExampleTemplate -->
<g id="node7" class="node"><title>\\ExampleTemplate</title>
<polygon fill="none" stroke="black" points="291.493,-592 173.493,-592 173.493,-556 291.493,-556 291.493,-592"/>
<text text-anchor="middle" x="232.493" y="-571.2" font-family="Courier,monospace" font-size="11.00">ExampleTemplate</text>
</g>
<!-- \\Editor -->
<g id="node8" class="node"><title>\\Editor</title>
<polygon fill="none" stroke="black" points="260.993,-538 203.993,-538 203.993,-502 260.993,-502 260.993,-538"/>
<text text-anchor="middle" x="232.493" y="-517.2" font-family="Courier,monospace" font-size="11.00">Editor</text>
</g>
<!-- \\Multilang -->
<g id="node9" class="node"><title>\\Multilang</title>
<polygon fill="none" stroke="black" points="270.993,-484 193.993,-484 193.993,-448 270.993,-448 270.993,-484"/>
<text text-anchor="middle" x="232.493" y="-463.2" font-family="Courier,monospace" font-size="11.00">Multilang</text>
</g>
<!-- \\ImageLib_Thumbs_Thread -->
<g id="node10" class="node"><title>\\ImageLib_Thumbs_Thread</title>
<polygon fill="none" stroke="black" points="314.993,-430 149.993,-430 149.993,-394 314.993,-394 314.993,-430"/>
<text text-anchor="middle" x="232.493" y="-409.2" font-family="Courier,monospace" font-size="11.00">ImageLib_Thumbs_Thread</text>
</g>
<!-- \\Thread -->
<g id="node18" class="node"><title>\\Thread</title>
<ellipse fill="none" stroke="black" cx="38.9965" cy="-412" rx="38.9931" ry="18"/>
<text text-anchor="middle" x="38.9965" y="-408.3" font-family="Times New Roman,serif" font-size="14.00" fill="gray">\Thread</text>
</g>
<!-- \\ImageLib_Thumbs_Thread&#45;&gt;\\Thread -->
<g id="edge1" class="edge"><title>\\ImageLib_Thumbs_Thread&#45;&gt;\\Thread</title>
<path fill="none" stroke="black" d="M149.726,-412C128.712,-412 106.779,-412 88.0952,-412"/>
<polygon fill="none" stroke="black" points="88.0761,-408.5 78.0761,-412 88.076,-415.5 88.0761,-408.5"/>
</g>
<!-- \\ImageLib -->
<g id="node11" class="node"><title>\\ImageLib</title>
<polygon fill="none" stroke="black" points="267.993,-376 196.993,-376 196.993,-340 267.993,-340 267.993,-376"/>
<text text-anchor="middle" x="232.493" y="-355.2" font-family="Courier,monospace" font-size="11.00">ImageLib</text>
</g>
<!-- \\ACL -->
<g id="node12" class="node"><title>\\ACL</title>
<polygon fill="none" stroke="black" points="259.493,-322 205.493,-322 205.493,-286 259.493,-286 259.493,-322"/>
<text text-anchor="middle" x="232.493" y="-301.2" font-family="Courier,monospace" font-size="11.00">ACL</text>
</g>
<!-- \\Categories -->
<g id="node13" class="node"><title>\\Categories</title>
<polygon fill="none" stroke="black" points="274.493,-268 190.493,-268 190.493,-232 274.493,-232 274.493,-268"/>
<text text-anchor="middle" x="232.493" y="-247.2" font-family="Courier,monospace" font-size="11.00">Categories</text>
</g>
<!-- \\SimpleFrontend -->
<g id="node14" class="node"><title>\\SimpleFrontend</title>
<polygon fill="none" stroke="black" points="287.993,-214 176.993,-214 176.993,-178 287.993,-178 287.993,-214"/>
<text text-anchor="middle" x="232.493" y="-193.2" font-family="Courier,monospace" font-size="11.00">SimpleFrontend</text>
</g>
<!-- \\Groups -->
<g id="node15" class="node"><title>\\Groups</title>
<polygon fill="none" stroke="black" points="260.993,-160 203.993,-160 203.993,-124 260.993,-124 260.993,-160"/>
<text text-anchor="middle" x="232.493" y="-139.2" font-family="Courier,monospace" font-size="11.00">Groups</text>
</g>
<!-- \\SessionManager -->
<g id="node16" class="node"><title>\\SessionManager</title>
<polygon fill="none" stroke="black" points="287.993,-106 176.993,-106 176.993,-70 287.993,-70 287.993,-106"/>
<text text-anchor="middle" x="232.493" y="-85.2" font-family="Courier,monospace" font-size="11.00">SessionManager</text>
</g>
<!-- \\TPL -->
<g id="node17" class="node"><title>\\TPL</title>
<polygon fill="none" stroke="black" points="259.493,-52 205.493,-52 205.493,-16 259.493,-16 259.493,-52"/>
<text text-anchor="middle" x="232.493" y="-31.2" font-family="Courier,monospace" font-size="11.00">TPL</text>
</g>
</g>
</svg>
